<svg width="275" height="61" viewBox="0 0 275 61" fill="none" xmlns="http://www.w3.org/2000/svg">
<path d="M167.936 17.7903C169.886 17.7905 171.441 18.436 172.268 20.0071C173.064 21.5206 173.11 23.771 172.423 26.8011L172.422 26.804L166.502 52.1644L166.501 52.1673C166.226 53.3073 166.196 54.1339 166.361 54.6468C166.44 54.8884 166.555 55.0409 166.694 55.138C166.837 55.237 167.05 55.3099 167.375 55.3099C168.109 55.3098 169.019 54.8915 170.135 53.4007C171.251 51.9095 172.511 49.424 173.945 45.4798C174.083 45.0716 174.28 44.7305 174.552 44.4876C174.835 44.2345 175.174 44.1107 175.535 44.1107C176.016 44.1107 176.45 44.3335 176.666 44.7835C176.864 45.1947 176.83 45.6971 176.652 46.1985L176.652 46.1995C173.202 57.1925 168.454 60.8702 164.655 60.8704C162.776 60.8704 161.263 60.2178 160.46 58.6478C159.688 57.137 159.64 54.8909 160.327 51.8597L160.328 51.8568L166.248 26.4964L166.249 26.4925L166.341 26.0804C166.529 25.1516 166.535 24.4628 166.39 24.014C166.312 23.772 166.196 23.619 166.056 23.5218C165.913 23.4229 165.7 23.3499 165.375 23.3499C164.641 23.3499 163.731 23.7692 162.615 25.2601C161.501 26.7496 160.241 29.2308 158.809 33.1673L158.81 33.1683C158.672 33.582 158.473 33.9278 158.198 34.1732C157.916 34.4261 157.576 34.5501 157.215 34.5501C156.734 34.55 156.3 34.3264 156.084 33.8763C155.887 33.4648 155.92 32.962 156.099 32.4603C157.831 26.9416 159.838 23.2882 161.883 21.0062C163.932 18.7191 166.039 17.7903 167.936 17.7903ZM93.3429 17.7903C96 17.7904 98.137 18.5619 99.5988 20.22C101.05 21.8666 101.764 24.3061 101.764 27.4905V51.97C101.764 53.0989 101.921 53.8434 102.155 54.2874C102.371 54.6961 102.634 54.8304 102.944 54.8304C103.388 54.8303 103.943 54.5623 104.413 53.6927C104.888 52.814 105.243 51.3666 105.243 49.1702C105.243 48.641 105.389 48.1894 105.683 47.8646C105.979 47.5368 106.381 47.39 106.783 47.39C107.193 47.39 107.59 47.5438 107.869 47.9046C108.133 48.2458 108.243 48.7116 108.243 49.2503C108.243 53.1909 107.432 56.0619 106.125 57.9632C104.809 59.8786 103 60.7902 101.104 60.7903C99.645 60.7903 98.489 60.0982 97.6515 59.0403C96.8235 57.9943 96.299 56.5865 96.05 55.0921L96.049 55.0862C95.9911 54.7098 95.839 54.6917 95.8048 54.6898C95.7041 54.684 95.4276 54.7629 95.1144 55.2151L95.1076 55.2239C93.8117 57.0058 92.5281 58.4034 91.0421 59.3519C89.5449 60.3075 87.8699 60.7903 85.8234 60.7903C83.4684 60.7903 81.4163 59.9894 79.9513 58.5355C78.4855 57.0804 77.6438 55.0068 77.6437 52.5306C77.6437 48.9508 79.4755 45.5876 82.4904 42.7464C85.5063 39.9043 89.7367 37.5511 94.63 35.9739C94.9125 35.8789 95.0759 35.7519 95.1711 35.6234C95.2658 35.4952 95.3234 35.3246 95.3234 35.0901V27.8099C95.3234 25.292 94.8876 23.6314 94.1906 22.6126C93.5166 21.6275 92.5618 21.1898 91.3429 21.1898C90.1397 21.1899 89.0182 21.6778 88.0685 22.8284C87.1056 23.9952 86.3082 25.8589 85.8361 28.6097L85.8371 28.6107C85.2477 32.2312 83.0058 33.9103 80.9435 33.9105C80.1666 33.9105 79.4689 33.6806 78.964 33.1888C78.457 32.6948 78.2033 31.9937 78.2033 31.1702C78.2033 27.8501 80.2765 24.5044 83.1457 22.013C86.0209 19.5164 89.7926 17.7905 93.3429 17.7903ZM227.622 17.7903C229.733 17.7904 231.449 18.6653 232.36 20.4866C233.248 22.2647 233.318 24.8468 232.425 28.1761L232.426 28.1771L226.346 51.3773C225.956 52.8599 225.987 53.8487 226.234 54.4368C226.352 54.7195 226.519 54.9082 226.719 55.0306C226.923 55.1552 227.193 55.2298 227.542 55.2298C228.402 55.2298 229.306 54.8044 230.298 53.3401C231.302 51.8582 232.345 49.3805 233.461 45.4339L233.546 45.1859C233.644 44.9439 233.782 44.721 233.982 44.5452C234.256 44.3028 234.6 44.1898 234.983 44.1898C235.258 44.1898 235.518 44.253 235.74 44.3987C235.964 44.5459 236.113 44.7542 236.199 44.9827C236.364 45.4179 236.316 45.9416 236.185 46.4222L236.184 46.4241C234.655 51.9348 232.911 55.5133 231.055 57.722C229.183 59.9492 227.189 60.7903 225.222 60.7903C223.155 60.7903 221.404 59.9387 220.441 58.1243C219.496 56.3454 219.363 53.739 220.258 50.3235L220.259 50.3216L226.419 27.1224V27.1204L226.517 26.7444C226.97 24.9128 226.942 23.7675 226.701 23.0999C226.578 22.7576 226.403 22.5513 226.212 22.4261C226.017 22.2985 225.768 22.2298 225.462 22.2298C224.956 22.2298 224.322 22.4766 223.565 23.0325C222.815 23.583 221.993 24.402 221.122 25.4603C219.381 27.5758 217.492 30.5879 215.635 34.1419C211.923 41.2475 208.379 50.4482 206.429 58.804L206.427 58.8118C206.333 59.1872 206.172 59.5291 205.869 59.765C205.566 60.0007 205.198 60.0706 204.822 60.0706H201.702C201.292 60.0706 200.85 59.9827 200.557 59.6507C200.253 59.3059 200.239 58.8489 200.334 58.4222L200.335 58.4153L207.694 27.138L207.851 26.4017C208.164 24.7701 208.131 23.7226 207.918 23.0901C207.801 22.7431 207.637 22.5405 207.461 22.4202C207.283 22.2981 207.048 22.2298 206.742 22.2298C206.249 22.2298 205.625 22.4753 204.877 23.0335C204.137 23.5858 203.325 24.4075 202.464 25.4691C200.743 27.5909 198.873 30.6102 197.036 34.1693C193.364 41.2852 189.859 50.4862 187.949 58.8021L187.947 58.8118C187.854 59.1873 187.692 59.529 187.389 59.765C187.086 60.0007 186.718 60.0706 186.342 60.0706H183.062C182.652 60.0706 182.21 59.9825 181.917 59.6507C181.613 59.3059 181.6 58.849 181.694 58.4222L181.695 58.4144L189.296 26.4944V26.4925L189.388 26.0804C189.576 25.1516 189.582 24.4628 189.437 24.014C189.359 23.772 189.242 23.619 189.103 23.5218C188.96 23.4229 188.747 23.3499 188.422 23.3499C187.688 23.3499 186.778 23.7692 185.662 25.2601C184.548 26.7496 183.288 29.2308 181.856 33.1673L181.857 33.1683C181.719 33.582 181.519 33.9278 181.245 34.1732C180.962 34.4261 180.623 34.5501 180.262 34.5501C179.781 34.55 179.347 34.3264 179.131 33.8763C178.934 33.4648 178.967 32.962 179.146 32.4603C180.878 26.9416 182.885 23.2882 184.93 21.0062C186.979 18.7191 189.086 17.7903 190.983 17.7903C192.862 17.7905 194.374 18.443 195.177 20.013C195.949 21.5238 195.997 23.7699 195.31 26.8011V26.803L193.471 34.7386C196.443 28.6537 199.15 24.4728 201.646 21.7894C204.224 19.0173 206.628 17.7903 208.902 17.7903C211.019 17.7905 212.675 18.6706 213.553 20.4935C214.406 22.265 214.479 24.8408 213.709 28.1634L212.202 34.6917C215.095 28.5561 217.796 24.3869 220.309 21.7269C222.912 18.9705 225.354 17.7903 227.622 17.7903ZM260.751 17.7903C262.749 17.7904 264.707 18.5415 266.024 20.1468L266.278 20.4798L266.283 20.4866L266.287 20.4925C266.443 20.7264 266.548 20.8516 266.634 20.9202C266.699 20.972 266.75 20.9905 266.831 20.9905C266.913 20.9905 266.964 20.9722 267.029 20.9202C267.115 20.8516 267.219 20.7264 267.375 20.4925L267.38 20.4866L267.385 20.4798C267.995 19.6257 268.491 19.0751 268.944 18.7386C269.418 18.3856 269.843 18.2698 270.272 18.2698C270.669 18.2699 271.069 18.4146 271.334 18.7503C271.601 19.0883 271.663 19.5339 271.56 19.9984L271.559 20.0032L264.439 50.6439L264.438 50.6458C264.041 52.3124 263.97 53.5045 264.183 54.2532C264.285 54.6126 264.445 54.8429 264.642 54.9876C264.841 55.1335 265.128 55.2298 265.552 55.2298C266.532 55.2296 267.48 54.6113 268.465 52.9993C269.448 51.3896 270.393 48.9038 271.391 45.4319C271.487 45.0968 271.645 44.7793 271.91 44.5452C272.185 44.3027 272.529 44.1898 272.911 44.1898C273.177 44.1898 273.429 44.258 273.641 44.4095C273.851 44.5596 273.986 44.7662 274.069 44.9827C274.226 45.398 274.209 45.905 274.123 46.3792L274.121 46.3919C273.076 51.4187 271.697 55.0047 269.931 57.3421C268.144 59.7065 265.961 60.7902 263.392 60.7903C261.136 60.7903 259.414 59.7544 258.484 57.8714C257.572 56.0261 257.451 53.4339 258.185 50.3353L259.084 46.5286C256.227 51.6822 253.744 55.2055 251.452 57.4573C249.083 59.7857 246.883 60.7903 244.671 60.7903C242.578 60.7902 240.9 59.8609 239.77 58.0784C238.658 56.3251 238.092 53.776 238.092 50.5306C238.092 42.8126 241.073 34.6554 245.36 28.4271C247.505 25.3104 249.989 22.6593 252.611 20.7835C255.23 18.9096 258.015 17.7904 260.751 17.7903ZM20.3224 0.670227C20.6473 0.670243 21.0302 0.752797 21.3712 1.03448C21.7078 1.31257 21.9508 1.74072 22.088 2.32941L34.7277 53.0491L34.7287 53.0521L34.8625 53.5775C35.1741 54.7423 35.4847 55.4809 35.883 55.9769C36.2591 56.4452 36.7444 56.7332 37.5109 56.9232L37.8576 56.9993L37.8605 57.0003L39.0607 57.2396L39.0714 57.2425L39.3654 57.3206C39.5707 57.3851 39.7635 57.4697 39.9337 57.5814C40.1699 57.4196 40.4589 57.3131 40.7765 57.2425L40.7902 57.2396L40.8029 57.2366L41.757 57.0775C42.8585 56.8807 43.3735 56.6261 43.6515 56.2718C43.9368 55.9081 44.0656 55.3266 44.0656 54.2103V27.3304C44.0656 26.3818 43.9393 25.9374 43.7443 25.6917C43.5603 25.4602 43.2305 25.3013 42.4875 25.1839L40.8146 24.9456C40.3766 24.8993 39.9948 24.7797 39.7228 24.5247C39.4291 24.2492 39.3449 23.8952 39.3449 23.5706C39.3449 23.3785 39.3865 23.1871 39.4845 23.0101C39.5818 22.8346 39.7207 22.699 39.8781 22.5941C40.1773 22.3946 40.5825 22.2809 41.0353 22.1985L41.0441 22.1966L41.0529 22.1956C42.6389 21.9635 43.7358 21.5616 44.6623 21.0189C45.597 20.4712 46.378 19.7689 47.339 18.888C47.8053 18.4223 48.2588 18.0307 48.8849 18.0306C49.2469 18.0306 49.5916 18.1584 49.8253 18.47C50.0388 18.7547 50.1056 19.1225 50.1056 19.4905V23.0901C50.1056 23.4504 50.2466 23.5364 50.2824 23.5491C50.3291 23.5657 50.5541 23.5948 50.9318 23.2171L50.9386 23.2103L51.7287 22.47C53.541 20.8176 55.1483 19.684 56.7121 18.9476C58.5079 18.1019 60.2226 17.7904 62.0851 17.7903C64.6134 17.7904 66.7432 18.7015 68.2306 20.5013C69.7079 22.289 70.505 24.8966 70.505 28.2103V54.2103C70.505 55.3288 70.6338 55.9063 70.9152 56.2581C71.1869 56.5977 71.6935 56.8371 72.7921 56.9944L74.5529 57.2347L74.5558 57.2357L74.6886 57.2581C74.9952 57.3218 75.2817 57.4549 75.5002 57.6878C75.7546 57.9592 75.8653 58.3114 75.8654 58.6898C75.8654 59.0969 75.7151 59.4599 75.4259 59.7151C75.1445 59.9634 74.7773 60.0706 74.4054 60.0706H60.965C60.4867 60.0706 60.0724 59.9503 59.7726 59.6839C59.4665 59.4116 59.3449 59.044 59.3449 58.6898C59.3451 57.9537 59.8559 57.3498 60.6544 57.2357L61.7746 57.0755L62.1564 57.012C62.9883 56.8537 63.4079 56.6179 63.6486 56.305C63.9368 55.9302 64.0656 55.3267 64.0656 54.2103V29.0901C64.0656 26.5382 63.571 24.8983 62.7404 23.8997C61.927 22.9222 60.7141 22.47 59.0451 22.47C54.2884 22.4701 50.5052 27.1103 50.505 32.7698V54.2103C50.505 55.329 50.6345 55.9285 50.9191 56.2913C51.188 56.6341 51.6885 56.8767 52.7785 56.9935H52.7804L54.9406 57.2337H54.9484L54.9562 57.2357C55.3118 57.2865 55.6428 57.4204 55.8888 57.6663C56.1419 57.9194 56.2648 58.2519 56.2648 58.6107C56.2647 59.0408 56.125 59.443 55.7775 59.721C55.4513 59.9819 55.0187 60.0706 54.5656 60.0706H41.0451C40.6499 60.0706 40.2782 60.0023 39.9767 59.8265C39.6595 60.0089 39.2686 60.0706 38.883 60.0706H25.2023C24.7775 60.0706 24.3719 59.9769 24.0627 59.7327C23.7358 59.4746 23.5832 59.0999 23.5832 58.6898C23.5833 58.2933 23.7559 57.9278 24.0968 57.6644C24.4186 57.4157 24.8612 57.2782 25.3908 57.2327L26.9103 57.0726L26.9191 57.0716C27.788 56.996 28.1135 56.7664 28.2541 56.4798C28.4274 56.126 28.4367 55.4885 28.1564 54.3275L25.1173 41.929L25.1164 41.9251C24.9754 41.3259 24.7231 40.9154 24.3918 40.6517C24.0606 40.3883 23.5988 40.2299 22.963 40.2298H14.5627C13.9164 40.2298 13.4785 40.3732 13.1632 40.6224C12.8448 40.8741 12.5876 41.2846 12.4044 41.9437L9.68765 52.6536L9.68668 52.6575C9.29599 54.1421 9.3107 55.1803 9.62613 55.8597C9.92071 56.4941 10.5345 56.9284 11.6671 57.0745H11.6691L12.8693 57.2347L12.8849 57.2366C13.3939 57.3215 13.8242 57.4585 14.1369 57.6859C14.4784 57.9343 14.6621 58.2808 14.6623 58.6898C14.6623 59.0999 14.5096 59.4746 14.1828 59.7327C13.8735 59.9769 13.4679 60.0705 13.0431 60.0706H1.84293C1.44154 60.0706 1.03283 60.0053 0.709137 59.805C0.351453 59.5834 0.142735 59.2219 0.142731 58.7698C0.142829 58.3532 0.299825 57.9962 0.599762 57.7278C0.88028 57.4769 1.25468 57.3313 1.65445 57.2425L1.66422 57.2396L2.86441 57.0003L2.86832 56.9993L3.03531 56.9632C3.85509 56.7683 4.45664 56.336 4.94351 55.6429C5.47861 54.881 5.8807 53.7949 6.23648 52.3323L6.23746 52.3294L18.6378 2.32941C18.7751 1.7404 19.0169 1.31806 19.3361 1.0423C19.6595 0.762994 20.0205 0.670291 20.3224 0.670227ZM147.691 1.47003C148.129 1.47009 148.58 1.55289 148.884 1.85675C149.209 2.18146 149.233 2.61627 149.143 3.01105L149.144 3.01202C149.026 3.72058 148.465 4.14856 147.813 4.28253L147.681 4.30499L145.441 4.62531H145.439C144.297 4.78272 143.693 5.00734 143.303 5.37433C142.912 5.74254 142.656 6.32924 142.419 7.43488L142.417 7.44366L132.018 52.2435C131.601 54.0643 131.929 55.2202 132.652 55.9349C133.403 56.6775 134.701 57.0706 136.49 57.0706C140.313 57.0705 144.804 54.2885 147.55 47.7757L147.551 47.7737L149.95 42.1732C150.088 41.8128 150.286 41.4783 150.574 41.2308C150.879 40.9699 151.256 40.8304 151.691 40.8304C152.137 40.8305 152.576 41.004 152.839 41.4075C153.094 41.7988 153.115 42.3009 152.973 42.8216L152.97 42.8333L148.489 57.8734L148.488 57.8724C148.303 58.5575 147.95 59.1151 147.442 59.4993C146.931 59.8852 146.3 60.0706 145.611 60.0706H120.01C119.556 60.0706 119.147 59.9809 118.843 59.7444C118.517 59.4907 118.39 59.13 118.39 58.7698C118.39 58.3198 118.595 57.9341 118.975 57.6566C119.329 57.3976 119.822 57.2408 120.416 57.1556L122.016 56.9153H122.022L122.429 56.8528C123.321 56.7021 123.825 56.5052 124.165 56.1985C124.55 55.8517 124.804 55.2905 125.041 54.1859L125.043 54.1771L135.923 7.138C136.04 6.58959 136.1 6.18141 136.104 5.86847C136.107 5.55872 136.053 5.38444 135.98 5.27081C135.908 5.15917 135.778 5.0453 135.509 4.93292C135.234 4.81791 134.851 4.71989 134.319 4.6214L134.313 4.62042L132.712 4.30011C132.27 4.21163 131.906 4.06544 131.649 3.82452C131.371 3.56416 131.271 3.24314 131.271 2.92999C131.271 2.43684 131.5 2.03971 131.891 1.78937C132.253 1.55733 132.722 1.47005 133.21 1.47003H147.691ZM95.132 39.2484C95.0249 39.1893 94.7745 39.1428 94.3224 39.3167L94.3166 39.3187C91.1299 40.4989 88.6516 42.0786 86.9728 44.0355C85.3011 45.9842 84.4035 48.3288 84.4035 51.0901C84.4035 52.8353 84.754 54.0931 85.3546 54.9026C85.9375 55.6882 86.7992 56.1107 87.9836 56.1107C89.819 56.1105 91.6444 55.0277 93.0304 53.1351C94.4126 51.2476 95.3233 48.5929 95.3234 45.5706V39.7298C95.3233 39.41 95.2142 39.2939 95.132 39.2484ZM260.512 20.7903C258.948 20.7903 257.159 21.7598 255.317 23.5638C253.488 25.3541 251.676 27.9007 250.072 30.8958C246.862 36.8899 244.531 44.5899 244.531 51.4105C244.531 53.2723 244.773 54.3529 245.147 54.9583C245.325 55.2478 245.533 55.4267 245.766 55.5384C246.005 55.6529 246.301 55.7102 246.671 55.7103C247.331 55.7102 248.103 55.4235 248.97 54.8314C249.832 54.2425 250.751 53.3783 251.694 52.2923C253.581 50.121 255.52 47.1161 257.27 43.8157C259.018 40.5181 260.567 36.9433 261.678 33.6409C262.792 30.3281 263.451 27.3289 263.451 25.1702C263.451 23.6685 263.142 22.5645 262.634 21.8499C262.142 21.1576 261.437 20.7905 260.512 20.7903ZM13.7707 36.0755C13.7122 36.3757 13.7726 36.5569 13.8429 36.6507C13.9079 36.7371 14.0425 36.8303 14.3224 36.8304H23.1232C23.403 36.8303 23.5377 36.7371 23.6027 36.6507C23.6736 36.5561 23.7328 36.3731 23.672 36.0687L18.8361 15.8177L13.7707 36.0755ZM172.015 2.26984C173.206 2.26986 174.274 2.66847 175.048 3.39581C175.824 4.12593 176.276 5.16098 176.276 6.37042C176.275 9.61204 173.885 11.6702 171.215 11.6702C168.917 11.6701 167.196 9.82427 167.195 7.49054C167.195 4.34629 169.487 2.27007 172.015 2.26984Z" fill="#151515"/>
</svg>
